HIERARCHY
ROOT Hips
{
	OFFSET -14.64140 90.27770 -84.91600
	CHANNELS 6 Xposition Yposition Zposition Zrotation Xrotation Yrotation
	JOINT Spine
	{
		OFFSET 0.00000 13.20850 -1.60436
		CHANNELS 3 Zrotation Xrotation Yrotation
		JOINT Spine1
		{
			OFFSET 0.00000 8.61716 0.00000
			CHANNELS 3 Zrotation Xrotation Yrotation
			JOINT Spine2
			{
				OFFSET 0.00000 8.61717 0.00000
				CHANNELS 3 Zrotation Xrotation Yrotation
				JOINT Spine3
				{
					OFFSET 0.00000 8.61717 0.00000
					CHANNELS 3 Zrotation Xrotation Yrotation
					JOINT Neck
					{
						OFFSET 0.00000 11.07920 1.10792
						CHANNELS 3 Zrotation Xrotation Yrotation
						JOINT Neck1
						{
							OFFSET 0.00000 7.08032 0.00000
							CHANNELS 3 Zrotation Xrotation Yrotation
							JOINT Head
							{
								OFFSET 0.00000 7.08031 0.00000
								CHANNELS 3 Zrotation Xrotation Yrotation
								End site
								{
									OFFSET 0.00000 0.00000 0.00000
								}
							}
						}
					}
					JOINT RightShoulder
					{
						OFFSET -0.01000 7.91373 5.19711
						CHANNELS 3 Zrotation Xrotation Yrotation
						JOINT RightArm
						{
							OFFSET -18.41580 0.00000 0.00000
							CHANNELS 3 Zrotation Xrotation Yrotation
							JOINT RightForeArm
							{
								OFFSET -29.11090 0.00000 0.00000
								CHANNELS 3 Zrotation Xrotation Yrotation
								JOINT RightHand
								{
									OFFSET -24.65040 0.00000 0.00000
									CHANNELS 3 Zrotation Xrotation Yrotation
									JOINT RightHandThumb1
									{
										OFFSET -5.35114 -0.85590 3.97906
										CHANNELS 3 Zrotation Xrotation Yrotation
										JOINT RightHandThumb2
										{
											OFFSET -4.52789 0.00000 0.00000
											CHANNELS 3 Zrotation Xrotation Yrotation
											JOINT RightHandThumb3
											{
												OFFSET -2.46976 0.00000 0.00000
												CHANNELS 3 Zrotation Xrotation Yrotation
												End site
												{
													OFFSET 0.00000 0.00000 0.00000
												}
											}
										}
									}
									JOINT RightHandIndex1
									{
										OFFSET -14.26970 0.00000 2.88139
										CHANNELS 3 Zrotation Xrotation Yrotation
										JOINT RightHandIndex2
										{
											OFFSET -5.48836 0.00000 0.00000
											CHANNELS 3 Zrotation Xrotation Yrotation
											JOINT RightHandIndex3
											{
												OFFSET -3.01859 0.00000 0.00000
												CHANNELS 3 Zrotation Xrotation Yrotation
												End site
												{
													OFFSET 0.00000 0.00000 0.00000
												}
											}
										}
									}
									JOINT RightHandMiddle1
									{
										OFFSET -14.26970 0.00000 -0.09147
										CHANNELS 3 Zrotation Xrotation Yrotation
										JOINT RightHandMiddle2
										{
											OFFSET -6.17441 0.00000 0.00000
											CHANNELS 3 Zrotation Xrotation Yrotation
											JOINT RightHandMiddle3
											{
												OFFSET -3.56743 0.00000 0.00000
												CHANNELS 3 Zrotation Xrotation Yrotation
												End site
												{
													OFFSET 0.00000 0.00000 0.00000
												}
											}
										}
									}
									JOINT RightHandRing1
									{
										OFFSET -12.69180 0.00000 -3.06433
										CHANNELS 3 Zrotation Xrotation Yrotation
										JOINT RightHandRing2
										{
											OFFSET -5.62556 0.00000 0.00000
											CHANNELS 3 Zrotation Xrotation Yrotation
											JOINT RightHandRing3
											{
												OFFSET -3.56744 0.00000 0.00000
												CHANNELS 3 Zrotation Xrotation Yrotation
												End site
												{
													OFFSET 0.00000 0.00000 0.00000
												}
											}
										}
									}
									JOINT RightHandPinky1
									{
										OFFSET -11.11390 0.00000 -6.03719
										CHANNELS 3 Zrotation Xrotation Yrotation
										JOINT RightHandPinky2
										{
											OFFSET -4.52789 0.00000 0.00000
											CHANNELS 3 Zrotation Xrotation Yrotation
											JOINT RightHandPinky3
											{
												OFFSET -2.46976 0.00000 0.00000
												CHANNELS 3 Zrotation Xrotation Yrotation
												End site
												{
													OFFSET 0.00000 0.00000 0.00000
												}
											}
										}
									}
								}
							}
						}
					}
					JOINT LeftShoulder
					{
						OFFSET 0.01000 7.91373 5.19711
						CHANNELS 3 Zrotation Xrotation Yrotation
						JOINT LeftArm
						{
							OFFSET 18.41580 0.00000 0.00000
							CHANNELS 3 Zrotation Xrotation Yrotation
							JOINT LeftForeArm
							{
								OFFSET 29.11090 0.00000 0.00000
								CHANNELS 3 Zrotation Xrotation Yrotation
								JOINT LeftHand
								{
									OFFSET 24.65040 0.00000 0.00000
									CHANNELS 3 Zrotation Xrotation Yrotation
									JOINT LeftHandThumb1
									{
										OFFSET 5.35114 -0.85590 3.97906
										CHANNELS 3 Zrotation Xrotation Yrotation
										JOINT LeftHandThumb2
										{
											OFFSET 4.52789 0.00000 0.00000
											CHANNELS 3 Zrotation Xrotation Yrotation
											JOINT LeftHandThumb3
											{
												OFFSET 2.46977 0.00000 0.00000
												CHANNELS 3 Zrotation Xrotation Yrotation
												End site
												{
													OFFSET 0.00000 0.00000 0.00000
												}
											}
										}
									}
									JOINT LeftHandIndex1
									{
										OFFSET 14.26970 0.00000 2.88139
										CHANNELS 3 Zrotation Xrotation Yrotation
										JOINT LeftHandIndex2
										{
											OFFSET 5.48836 0.00000 0.00000
											CHANNELS 3 Zrotation Xrotation Yrotation
											JOINT LeftHandIndex3
											{
												OFFSET 3.01859 0.00000 0.00000
												CHANNELS 3 Zrotation Xrotation Yrotation
												End site
												{
													OFFSET 0.00000 0.00000 0.00000
												}
											}
										}
									}
									JOINT LeftHandMiddle1
									{
										OFFSET 14.26970 0.00000 -0.09147
										CHANNELS 3 Zrotation Xrotation Yrotation
										JOINT LeftHandMiddle2
										{
											OFFSET 6.17440 0.00000 0.00000
											CHANNELS 3 Zrotation Xrotation Yrotation
											JOINT LeftHandMiddle3
											{
												OFFSET 3.56744 0.00000 0.00000
												CHANNELS 3 Zrotation Xrotation Yrotation
												End site
												{
													OFFSET 0.00000 0.00000 0.00000
												}
											}
										}
									}
									JOINT LeftHandRing1
									{
										OFFSET 12.69180 0.00000 -3.06433
										CHANNELS 3 Zrotation Xrotation Yrotation
										JOINT LeftHandRing2
										{
											OFFSET 5.62556 0.00000 0.00000
											CHANNELS 3 Zrotation Xrotation Yrotation
											JOINT LeftHandRing3
											{
												OFFSET 3.56744 0.00000 0.00000
												CHANNELS 3 Zrotation Xrotation Yrotation
												End site
												{
													OFFSET 0.00000 0.00000 0.00000
												}
											}
										}
									}
									JOINT LeftHandPinky1
									{
										OFFSET 11.11390 0.00000 -6.03719
										CHANNELS 3 Zrotation Xrotation Yrotation
										JOINT LeftHandPinky2
										{
											OFFSET 4.52789 0.00000 0.00000
											CHANNELS 3 Zrotation Xrotation Yrotation
											JOINT LeftHandPinky3
											{
												OFFSET 2.46976 0.00000 0.00000
												CHANNELS 3 Zrotation Xrotation Yrotation
												End site
												{
													OFFSET 0.00000 0.00000 0.00000
												}
											}
										}
									}
								}
							}
						}
					}
					JOINT pCube4
					{
						OFFSET 0.00000 10.91090 1.10792
						CHANNELS 3 Zrotation Xrotation Yrotation
						End site
						{
							OFFSET 0.00000 0.00000 0.00000
						}
					}
				}
			}
		}
	}
	JOINT RightUpLeg
	{
		OFFSET -9.98441 0.00000 0.00000
		CHANNELS 3 Zrotation Xrotation Yrotation
		JOINT RightLeg
		{
			OFFSET 0.00000 -42.11790 0.00000
			CHANNELS 3 Zrotation Xrotation Yrotation
			JOINT RightFoot
			{
				OFFSET 0.00000 -45.00020 -0.00001
				CHANNELS 3 Zrotation Xrotation Yrotation
				JOINT RightForeFoot
				{
					OFFSET 0.00000 -3.74820 0.00000
					CHANNELS 3 Zrotation Xrotation Yrotation
					JOINT RightToeBase
					{
						OFFSET 0.00000 0.06325 14.43120
						CHANNELS 3 Zrotation Xrotation Yrotation
						End site
						{
							OFFSET 0.00000 0.00000 0.00000
						}
					}
				}
			}
		}
	}
	JOINT LeftUpLeg
	{
		OFFSET 9.98441 0.00000 0.00000
		CHANNELS 3 Zrotation Xrotation Yrotation
		JOINT LeftLeg
		{
			OFFSET 0.00000 -42.11800 0.00000
			CHANNELS 3 Zrotation Xrotation Yrotation
			JOINT LeftFoot
			{
				OFFSET 0.00000 -45.00070 0.00000
				CHANNELS 3 Zrotation Xrotation Yrotation
				JOINT LeftForeFoot
				{
					OFFSET 0.00000 -3.74824 0.00000
					CHANNELS 3 Zrotation Xrotation Yrotation
					JOINT LeftToeBase
					{
						OFFSET 0.00000 0.06325 14.43110
						CHANNELS 3 Zrotation Xrotation Yrotation
						End site
						{
							OFFSET 0.00000 0.00000 0.00000
						}
					}
				}
			}
		}
	}
}
MOTION
Frames: 4
Frame Time: 0.050000
-0.010560712637075418 -0.018711616625524834 -0.029588581715625985 -0.0222873095850072 -0.001574090099871528 0.01173628173545948 -2.875693252443503 -0.08481405704319336 -0.9011856363692239 -0.2113029672954427 3.798013134419798 0.21147811465993385 -0.7725836073000714 -2.0048812657374926 -0.12843600463562774 -1.0365908193205415 -1.1787595256718124 -0.5798656203482856 -0.2539185603312292 13.056040292782384 -0.2089599057148469 0.9750053194475946 -0.485439920124069 -0.20118963076870267 1.2111099741046 -15.291132031847187 -0.07282313785281717 -0.49805776327957896 0.5231591930198635 -13.127608764455053 63.225966210359374 -0.6293669228537158 23.652954532842276 34.08812896652958 7.655345375173375 98.21990276988912 27.54605000468946 0.024993715899272555 -7.6429043934893715 4.555679892860796 -0.13019066635361676 -1.5464799473947708 0.038589113185631414 -0.011118574341836366 -56.21538589398201 0.03487587430091287 -0.005909712243511472 -56.272969072566696 -38.76282374678922 0.020962343873545456 0.024158294698381606 -0.03896004034867607 -0.045945836212397846 -0.010170912027148843 -0.045647162192772914 -0.04321969574252942 0.010953800636475696 -36.731571809032694 0.018141590381709875 -0.009684445581721216 0.04467334598627323 0.0287986068679706 0.008109028246615363 0.010255884862766318 0.026158850461939987 0.0057332662378313925 -19.799032607995848 -0.04375606410847453 0.007223007240113692 -0.02576984959014686 -0.020330288933674136 -0.004247979473637685 0.0003696786500824557 -0.029106114168471368 0.04607374891898145 24.078123927763247 0.04790415178019401 0.0450901602105774 28.848832530393047 0.009016886374769481 -0.0007547493955402908 28.856178067760297 0.016309221900899687 -0.02819841529825823 4.618802866558297 1.3043799098264328 12.2194734148182 -68.07266442248472 25.200965761701525 -26.98324423783997 -24.523567290934846 3.4843034891055016 -97.47365973346244 -28.42044178512581 2.472477795138886 -2.6926075420419906 -0.44893419427878867 0.028750630500127584 -8.160394043778346 -0.015441191367724849 -0.03964245939050463 44.56063709168964 -0.029558796253798425 0.020481101551223773 44.524724210273526 12.417583277839176 0.020027671767519385 -0.03332870760614398 0.032317999630641754 -0.0315156567639215 -0.01837164858965979 0.013748732141221147 -0.01910042147693516 0.012449150363043539 11.090562644825168 -0.032107333113419075 -0.03951572945928667 0.04027528055376244 0.02216561340546566 -0.035430960167853506 -0.025602732969579257 0.02469547567572618 0.04930423497007429 4.748085549337533 0.023391676774496325 -0.005080854012551126 -0.0023847409051108524 0.039570088810798605 0.012036032169367482 0.008273534562672503 -0.032767579471570406 -0.005533417714959723 -5.557125828143699 -0.030525865969892912 0.0054442723208084605 -6.712967030680729 -0.03608176996634933 0.010375541381723904 -6.730166932046442 -0.03266888006524667 -0.028365403994032888 -0.0039345747501715895 -0.00402423705800723 -0.02271899573697576 7.99649443919591 3.4746884800503333 -19.23051558802034 -0.00918950135876118 10.36188393982644 0.01174047745938726 -5.6299514586816475 -15.696879871886384 3.1590820933890837 -0.02905025425496668 -0.04314103367085064 -0.03963923423220047 0.04776463065704101 4.699358134331222 0.021317640849836974 12.464429214013126 -8.263938673913728 6.923827162907675 0.014739473211903774 46.35599565610945 -0.000484420488098264 -4.316223562793023 -14.750704791209415 -3.8262776017717934 -0.003256847104867147 -0.003144415648061839 -0.021809742848563317 0.014011664267277209 -10.698806463769214 -0.002255876893614722 
-0.01306406271990372 -0.018205214493587772 -0.04730376135275441 -0.022412023378816356 -0.04011391513971532 -0.022931526429620805 -2.581054516803609 -0.09099108504553913 -1.0351074940176463 -0.2141965055102814 3.804410738916177 0.2564464725789243 -0.7328468071180757 -2.0510723447987163 -0.1147004843335891 -1.047455992592009 -1.1785864923277867 -0.5660629377732534 -0.2626606616638376 13.119361720992696 -0.11117364530787947 1.0132040114274106 -0.45046054524848417 -0.0697708218800732 1.2330574937588525 -15.242110158100997 -0.10356548890030745 -0.5147127752615444 0.5973619847789372 -13.349004017145413 64.1679354010128 -0.8395481074771345 22.690982640892997 32.1725483978487 7.821942976135762 98.7297156372315 26.82243036575858 -0.058182718814978746 -7.179991605843641 4.573472161001641 -0.08476487308254368 -1.5785987809141881 0.027817557973137563 -0.03034597933418577 -56.27301033493011 -0.023087018198173083 0.011621088329756744 -56.25423670945882 -38.731246880277396 -0.008747845086957794 0.02884204777213342 -0.0015574930014476953 -0.006155470438196024 -0.02275661429318581 -0.01000463314463279 0.024414741625094678 0.026240531967163944 -36.65890404021001 0.00831793491754621 0.007412177491560788 0.002003062265931353 -0.016584938064200323 0.03747888118436804 0.0446991139324744 -0.005305185775934647 0.024100680510156704 -19.762104031596827 -0.03881177815168441 -0.016908878385017305 0.0022959756543476178 0.03495869245471466 0.03073820700797669 0.0008214148069636237 0.003233802332595357 0.016909753866876043 24.10281824900315 0.008347428654739262 0.03620080057147142 28.901817365052658 0.014439520392064233 -0.019845128948520148 28.90404425049499 -0.04194753759871412 -0.02769911578090987 4.785288401137978 1.3708349997836329 12.369388445459292 -68.7124273862925 24.17351977734023 -27.09629496705102 -23.134155711430967 3.7839251104410403 -97.19598243047496 -27.702082411632666 3.375315889158611 -3.452975008331914 -0.5160817857967975 0.021446135921866866 -8.0890412071873 0.0023406738625110154 0.014874653172264494 44.574700029964546 0.036490055811139975 -0.03252781051290099 44.52845901726549 12.477980623436354 -0.007253653066461757 0.0432534677592385 -0.00017826675324496158 -0.032570908708062216 0.046281278550267285 -0.041847416155450755 0.02949415244770196 -0.02856515956432925 11.11582366319058 -0.04958985499299971 -0.015594297449146746 -0.009442431670947738 0.005557728436696736 0.01621541573329867 -0.03697090178288153 0.009446156148657334 0.02335771344121869 4.743538459623191 -0.002364936167558992 0.013983495389286177 0.03794069298854791 -0.0046050542470231996 0.02285033209101654 0.0360300537384483 -0.0493727870276762 -0.011116863369614515 -5.606415305283006 0.0022567141144008464 0.00962634160209805 -6.728945512476424 0.02250297808344084 0.03886593366721171 -6.73321614677641 -0.019203193510999517 0.011057264528387891 0.024750694625847 0.02995090228518414 -8.439308396710569e-05 8.012835758793997 3.4921587345647787 -19.222141364377247 0.017012834903267212 10.399673352819198 0.025015955768469197 -5.634431800169083 -15.655864007861153 3.1676523550266085 -0.013111757986028419 0.010798446438501324 0.023508325734199666 0.03283482916882103 4.705816851680437 -0.017579337401915626 12.463207595125946 -8.222008389152089 6.844045755698955 0.002404567694668303 46.332658757907225 -0.034891794595757995 -4.369462222204977 -14.782765309213993 -3.821162978163993 0.015919512016253197 -0.029417168394236238 -0.026254836165286746 -0.0311380432253077 -10.700502779890224 -0.010826123696088309 
-0.0016810524527356872 0.010156608102496505 -0.02146327389891148 -0.015247506225104674 -0.023594020283996223 0.007828890560987812 -2.2303711713563326 -0.1923657032306982 -1.0407190537411377 -0.24029097516979414 3.758551547465126 0.26028709407294004 -0.6271723707706311 -2.080513644962409 -0.14333560376524762 -1.0323268282668339 -1.2056316403755647 -0.5690511638898298 -0.3217711934954109 13.13914044613299 -0.06252141206207458 1.041685911929968 -0.3615500986308326 0.2375634028810385 1.1328986406889032 -15.182489081266201 -0.07947577921246143 -0.6261960805298635 0.6500590233149726 -13.445990169175557 65.31415582224933 -0.30072981145030375 21.66121244919906 31.067303538406726 8.021098559701736 99.24751827865695 26.077279214922488 -0.08529567105794005 -6.748394386923875 4.5707377204161235 -0.1440370431154928 -1.5687644119154478 -0.04830156875020071 -0.03630292828072146 -56.22886404936113 0.025595553334044716 0.04758318046454978 -56.2311589854638 -38.789978426197656 -0.02655238680313481 0.01802285071050257 -0.021433565648803325 0.047606369565567616 0.0011496195373286498 0.02462187051423013 0.029679831333568146 -0.026851327619753618 -36.670785788077275 0.02600045537796858 -0.005516326640460994 -0.04691353785499921 -0.021991869613259742 0.0198891097325173 0.020603203028102486 -0.025491601653647594 -0.035454390015571415 -19.770276916855618 -0.009205957701649557 -0.039487383877396975 0.03612103571010664 -0.023796450862750177 4.315214520468203e-05 0.0026754172419524032 -0.0089664383406381 0.01352223209099759 24.075566618441844 -0.022248231245430877 0.03648333003815079 28.816017882817846 0.012766285284090687 0.01579179786881987 28.89598840970364 0.03904107098497128 0.0060148415467918106 5.163576497286497 1.4034418732224538 12.409242287077808 -69.61819269146135 22.827568229545722 -27.350690057059516 -23.501438677012153 4.5079357423165165 -96.77526682048912 -26.802619825334844 4.3093707640367835 -3.9955021693381942 -0.4584431640306764 0.08470991179686307 -8.16632581312455 0.04313823124296529 -0.01746625570860465 44.599889471418464 0.0025094775762460587 0.015356155261746642 44.55708926130589 12.411352995021257 0.011506037223390081 0.008822749487133354 -0.030383004176821618 0.006279781946385168 -0.031103298432386097 0.03763592978199461 -0.004680952530305182 -0.03520549454075457 11.094162350924215 0.03413321790851595 -0.027827695023072085 -0.02554248233535163 0.015378165427500909 0.04265057316426467 0.004482359046021081 -0.022221234502389987 0.031125580049482862 4.7515114267773715 -0.029847811368011797 0.008732364359277092 -0.028049247136489163 0.019434752474437975 0.03013421331757797 0.03238132423768884 -0.03345223183201646 -0.013153759369850684 -5.6396039694565525 -0.025426177941838615 0.00918641028990236 -6.717916614544726 -0.04963299671332799 0.036935852874620305 -6.721361693733086 -0.04595431592791488 -0.01386534089530984 -0.019415358788805445 0.005523567863813784 0.022830205195570618 7.997770367976644 3.510367064874503 -19.254902030156366 0.023014743567330603 10.416563649965736 0.02570819375747429 -5.655055869583987 -15.665308009441446 3.1765449134570565 0.02928020035939139 -0.024709892549123213 0.012391601165043889 0.006497829912846568 4.659788597436376 0.013630722379832755 12.43981513927561 -8.27510576242907 6.913648754284764 -0.008590160465400795 46.36355306300039 -0.017996039691153917 -4.310634712037912 -14.774574783040066 -3.855883994850873 -0.008864518462445486 -0.013665239805792042 0.008513723213467377 -0.04814506630469152 -10.770527877409247 0.0373735799098186 
-0.03670490943052358 -0.047043259061112244 0.0057053537044022525 -0.0025559039431572663 -0.025697213083925908 -0.03336275067311064 -1.8572834661324236 -0.2131579597963683 -1.1309944812031134 -0.20690931324487516 3.8226478380893623 0.2104173573096127 -0.6334447063560535 -2.080155413740445 -0.13563581241391046 -1.021374025529209 -1.2129041825714133 -0.5779088766435634 -0.31292950783968754 13.219143226630907 -0.08782632907586699 1.0811943931899082 -0.29360211493588745 0.5641123437698148 1.1399848287312413 -15.006086869819525 -0.028906296304706026 -0.802520034198661 0.7239460888740297 -13.580080524450354 66.24776319250228 0.35976171918895083 21.03959987970277 30.38376991898757 8.182912212535843 99.59386354430687 25.26908810704971 -0.14389210238889732 -6.406567256470354 4.5469549694684295 -0.10132556596487584 -1.6232875504062148 0.014376516535216868 -0.04562901762560703 -56.2627508377815 0.001096159728899726 0.006068684418458717 -56.22939226497324 -38.72578869027517 0.00021507516329897507 -0.01833984186082481 -0.014086212600368476 -0.009775084854196965 0.006174529376499991 -0.04478318155984438 -0.001882753292525704 0.030313478416035523 -36.65471824464945 -0.039319270456587875 -0.005578005640899227 0.01842928380426774 0.02993412421631418 0.005725177954617356 -0.030863078647346984 -0.03552786820720564 -0.04673630538991845 -19.780600668640638 0.011223644464912027 -0.04777029894294745 0.013581748544619961 0.01735149768723587 -0.011907119246499467 -0.0472600976052912 0.0369053964699256 -0.04805850337665711 24.03411274763369 -0.03316467868601069 -0.009622401187233981 28.855472671080438 0.011210033110199946 -0.024142842511078462 28.893214771077144 0.03236896649065239 0.0005902693791050349 5.552572114274124 1.5085262128439387 12.498305582452101 -70.39871449475076 21.736391271568607 -27.901030023245255 -24.650674416110295 5.298250126554536 -96.45187989251285 -26.20908048311722 4.703048043612267 -4.204013191589165 -0.49650710348350735 0.05982350939985341 -8.165485737890021 0.03472077001136121 0.011985864422601612 44.56444952907511 0.009319334012693942 0.025712452430973726 44.594809975851824 12.485138055915336 0.022157308366550263 0.03471390481911639 -0.03165751513651316 0.025640384993608 0.037077163471868395 -0.04782364371980146 0.031083938020687266 -0.03711816289590138 11.141967385503072 -0.0003125431339921242 -0.03449106301422978 0.008590658969462114 0.04372738837199215 -0.01148443403837518 0.04687316500972843 0.023797217228838676 -0.04982314782678918 4.807684536854485 0.02406252927824753 0.0136056587350064 0.02287182023179474 0.03429282222025934 -0.025017215069270498 -0.02322614564052706 0.034304823493254664 0.03926026410819299 -5.639077268427953 0.04022239318211762 -0.043055330146372695 -6.761401871997307 0.025222064320314506 0.04526958974808148 -6.73434382070932 -0.0499045331825484 -0.04814598578029436 -0.01331805596626006 -0.031247792773949522 0.042313289854785704 8.055796748548135 3.506415502794686 -19.268453274882575 -0.02692859063518626 10.398834773807701 0.05633135608380836 -5.6195423088388425 -15.642375524305729 3.1816781246380414 -0.00040923592105970337 -0.03194781488272704 -0.012595857115661281 0.044981131787599354 4.6816333249163655 -0.02446827127872403 12.48290497915618 -8.287500080189702 6.893647968259988 -0.02727119539068952 46.36594104957373 0.007167222831126441 -4.325210658264081 -14.796966749525915 -3.8503055513817976 0.04009040152041125 0.009009583878348862 0.01506198840779515 0.02464960473978474 -10.697338826267467 -0.019418206653398586 
